<svg id="Ebene_2" data-name="Ebene 2" xmlns="http://www.w3.org/2000/svg" viewBox="0 0 1920 1080"><defs><style>.cls-1{fill:#30fa61;}.cls-2{fill:#d4ff2a;}</style></defs><g id="Ebene_4" data-name="Ebene 4"><path class="cls-1" d="M1054.05,176.18c98.18,53.11,223.63,2.61,264.09-70.32,0,0,3.2-4.7-.06-9.17a8.73,8.73,0,0,0-2.32-2.15s-40.51-27.17-108.89-21.25c0,0,14.36-29.7,13.56-60.11a7,7,0,0,0-5.39-5.5c-86.26-1.28-161.52,84.48-163.28,156.44C1051.76,164.12,1046.51,171.24,1054.05,176.18Z"/><path class="cls-2" d="M1068.44,140.94a187,187,0,0,1,27.37-25.15,21.93,21.93,0,0,0,4-3.72c8.73-10.65,49.32-58.95,80.19-75.44,7.22-1.56,10.52,6.91,4.79,10.65,0,0-20.67,10.59-54.09,47.34,0,0,29.07-14.08,59.25-18.94a2,2,0,0,0,1.4-1c2.46-4.25,13.7-25,15.71-53.65C1141.67,24.66,1081.8,84.2,1068.44,140.94Z"/><path class="cls-2" d="M1068.91,166.36c49.59-75,168.47-96.71,231.65-62.06C1250.71,178.64,1136.09,201.15,1068.91,166.36Z"/><path class="cls-1" d="M1102.47,146.89c36.06-14.19,112.73-43.51,160-42.73a7.07,7.07,0,0,1,.2,14c-48.42,0-117.85,27.63-154.59,41.28C1101.76,162.44,1094.63,151.91,1102.47,146.89Z"/></g><g id="Ebene_5" data-name="Ebene 5"><path class="cls-1" d="M400,1067.05h62.43L473.06,427.7l22-55,41.84-24.23,55.05,22L833.45,606.61l229.73-233.95,50.64-24.23,46.24,28.63,17.62,30.83,13.21,85.87v573.3h76V380.41c-2.1-116.87-154-179.14-244.07-92.34L833.45,477.37,644.39,288.31C569.7,210.45,408,245.43,400,381.1"/><path class="cls-2" d="M461.85,1067.06l124.07.06V509.94L833.5,757.56l247.63-247.62v557.18H1205l0-621.36c-1.67-114.3-84.12-158.67-188.55-58.12l-183,184L641.21,379.23c-52.91-57.16-173.1-91.47-179.36,67.62Z"/></g></svg>